PathFileType	4	(X/Y/Z)	C:\Users\°ÂÌØÂü\Desktop\20210112\bx_y_5_1801-Unnamed.trc
DataRate	CameraRate	NumFrames	NumMarkers	Units	OrigDataRate	OrigDataStartFrame	OrigNumFrames
50.00	50.00	       4	0	mm	50.00	349	       558
Frame#	Time	
		

349	6.960	-736.18970	267.15646	499.21460	-690.68030	-28.34820	820.55939	-766.59503	283.78238	863.81830	-700.27112	-49.26483	561.66919	-694.64685	217.50916	839.30115	-664.45953	53.84366	579.92682	-691.74554	261.82114	571.28833	-517.73041	-72.57544	142.97781	-634.67120	222.44524	529.97290	-596.40198	-82.66965	1446.45203	-668.04626	-71.26685	159.03891	-711.71954	72.35464	218.75121	-625.88782	-81.08418	157.60356	-769.01843	225.96620	204.06953	-882.57581	295.99649	144.46762	-674.64734	51.39387	162.60684	-604.41852	14.78931	170.79362	-563.02155	-41.76440	163.94641	-674.21954	175.15593	159.01886	-595.64417	227.12518	175.03748	-667.44476	301.30634	158.21007	-630.13989	309.51538	160.03723	-562.17297	264.10040	165.67105	-528.12592	304.19388	146.54546	-485.11774	89.84213	1724.11194	-623.06964	269.78281	1451.46399	-762.70703	-17.06766	1019.29517	-794.65540	172.87318	185.18298	-769.27649	-7.58865	205.13312	-793.42767	56.78531	175.00676	-768.31366	-84.35759	844.70868	-753.12878	-49.51769	484.67078	-876.07397	-78.87447	141.15222	-747.53473	286.82748	729.81158	-705.58771	156.63457	215.48157	-709.82013	262.83493	624.63721	-702.35107	-51.59161	612.01019	-734.21442	-74.12093	694.87360	-647.74048	-10.02818	515.42267				-648.31726	162.96248	578.41113				-963.80389	91.28406	1020.42792	-758.64758	204.74010	1022.26941	
350	6.980	-734.27686	267.34860	499.22430	-692.89844	-29.86694	819.83447	-769.80438	283.54242	860.98346	-698.87219	-50.35616	561.11603	-697.52356	216.77635	837.20416	-662.54523	53.05146	579.88562	-689.08600	261.86423	571.03143	-517.75702	-72.83725	143.05548	-632.67029	222.40869	528.80017	-591.01324	-82.71162	1436.23169	-667.99225	-71.35197	159.04433	-711.94263	72.07164	218.51447	-625.86450	-81.29707	157.73193	-768.90350	225.78815	204.17186	-882.54260	296.22430	144.69029	-674.84552	51.58442	162.73372	-604.45471	14.85263	170.94174	-563.05414	-41.74091	163.97319	-674.57086	175.10255	158.96567	-595.74152	227.21117	175.13815	-667.61420	301.18204	158.20038	-630.09460	309.30368	160.32434	-562.39545	263.87582	165.71693	-528.32770	304.16611	146.34163	-471.84100	90.18070	1710.39355	-617.16962	268.53955	1441.70813	-767.28381	-18.14523	1014.87946	-794.66766	172.79918	185.09071	-769.35510	-7.78725	205.08556	-793.58008	56.65681	174.95052	-771.78351	-85.51286	842.62903	-752.10229	-50.69749	484.49911	-876.10980	-78.86684	141.15924	-748.53387	287.44144	727.92395	-705.68323	156.37068	215.11839	-708.27026	262.95740	623.78540	-700.69708	-53.32865	611.43555	-734.82953	-75.27683	692.77991	-645.72668	-11.20227	514.40808				-645.61523	162.56407	578.29950				-967.92554	90.35877	1017.28424	-763.00977	203.60727	1017.38727	
351	7.000	-732.21320	267.20355	498.90317	-695.36157	-31.31952	818.69891	-773.84320	282.20657	858.00140	-696.57428	-51.52240	560.55090	-699.83643	216.49614	836.16620	-661.02234	51.57428	579.16913	-686.38409	262.13586	570.73840	-517.65320	-72.67865	143.14166	-629.93665	222.14760	527.87665	-586.41614	-82.66213	1425.37000	-667.98016	-71.33383	159.02695	-711.89209	71.95867	218.62314	-625.74298	-81.25653	157.72949	-769.10724	225.71487	204.40912	-882.61060	296.06824	144.54037	-674.73022	51.45589	162.68805	-604.35278	15.15624	170.53357	-562.89661	-41.95832	163.86829	-674.86584	175.12936	158.82765	-595.64801	227.00217	175.15425	-667.50916	301.11194	158.40869	-630.19812	309.10815	160.29892	-562.53638	263.95370	165.80354	-528.20941	304.15683	146.51466	-459.45370	90.85670	1696.03088	-612.26221	268.12918	1431.59912	-771.75226	-18.34063	1009.88947	-794.66766	172.79918	185.09071	-769.15485	-7.86749	205.07983	-793.66022	56.50251	175.03067	-774.59692	-86.31422	839.31091	-750.05176	-51.58653	484.17816	-875.97748	-78.88188	141.21204	-748.81165	286.77484	725.44836	-705.49548	156.21284	214.93942	-705.89294	263.01971	623.37988	-699.37091	-54.11203	610.55487	-734.79468	-76.49161	690.77966	-644.12671	-11.58444	514.19049				-643.49573	162.73064	577.52032				-973.18762	89.31358	1014.49670	
352	7.020	-728.82617	266.92917	498.25159	-697.80725	-32.21629	817.52844	-776.95258	281.51089	854.66589	-693.53412	-52.58223	559.67316	-702.46356	216.21161	834.11359	-659.07935	50.32520	578.49829	-683.33539	261.70822	569.85492	-517.72839	-72.85974	143.10677	-626.99969	221.95663	527.15063	-581.32678	-82.05862	1413.59131	-667.85333	-71.37950	159.01625	-712.24506	72.10018	218.29689	-625.61456	-81.53399	157.90341	-768.70782	225.67345	204.33937	-882.52435	296.11371	144.66434	-674.85358	51.61983	162.07324	-604.20343	15.18612	170.41795	-562.57056	-41.71613	163.59531	-674.94586	175.11240	158.70909	-595.43585	226.96667	175.02045	-667.55219	300.93918	158.44826	-630.06012	308.99609	160.35324	-562.37708	263.78345	165.68454	-528.19403	303.93927	146.40359	-447.20563	91.37650	1680.73389	-606.96448	267.98450	1420.66992	-776.21082	-18.88705	1004.74225	-794.66766	172.79918	185.09071	-768.51593	-8.27456	205.10823	-793.31067	56.46120	175.12073	-776.76233	-86.97387	837.03326	-747.18805	-52.85689	483.81198	-875.97589	-78.81084	141.28232	-749.02448	286.26230	723.15106	-705.34882	156.17635	214.90773	-703.55945	262.34729	621.27063	-696.81036	-55.06771	609.29321	-734.33167	-77.68265	689.15222	-641.80396	-12.53460	513.27728				-639.90143	162.61026	575.77930				-977.58881	88.22460	1010.59656	
